<svg width="954" height="1074" viewBox="0 0 954 1074" fill="none" xmlns="http://www.w3.org/2000/svg">
<path d="M724.26 960.808L700.207 943.332L517.408 1050.13L563.589 859.832M724.26 960.808L847.409 938.477M724.26 960.808L748.312 784.1M847.409 938.477L908.983 902.553M847.409 938.477L748.312 784.1M908.983 902.553L930.15 835.559M908.983 902.553L748.312 784.1M930.15 835.559L930.15 723.903M930.15 835.559L748.312 784.1M930.15 723.903L906.097 694.881M930.15 723.903L748.312 784.1M797.379 563.7L358.661 406.411M797.379 563.7L918.604 453.015L930.15 467.579L906.097 694.881M797.379 563.7L906.097 694.881M797.379 563.7L748.312 784.1M358.661 406.411C358.661 406.411 333.483 398.616 319.215 389.905C312.525 385.821 308.908 383.252 302.859 378.254C298.127 374.344 295.229 372.316 291.314 367.574C286.571 361.828 284.351 358.049 281.693 351.068C278.679 343.154 277.313 339.04 275.92 330.679C273.78 317.828 274.059 309.686 273.034 296.696C271.811 281.199 271.754 272.38 273.034 256.888C274.982 233.321 279.606 220.54 285.541 197.662C291.32 175.386 297.882 163.82 302.859 141.348C307.333 121.148 309.441 109.586 310.556 88.9185C311.927 63.5065 306.708 23.8666 306.708 23.8666L294.2 33.5758M358.661 406.411L748.312 784.1M294.2 33.5758L291.314 28.7212L277.844 33.5758L277.844 44.256L270.148 54.9361M294.2 33.5758L291.314 54.9361C291.314 54.9361 287.844 83.3465 285.541 101.54C282.613 124.68 281.461 137.727 277.844 160.767C274.017 185.153 266.299 222.906 266.299 222.906L257.64 287.958L266.299 329.708L277.844 389.905M563.589 859.832C563.589 859.832 487.825 772.21 447.174 710.31C418.339 666.401 379.827 593.799 379.827 593.799L285.541 437.48M563.589 859.832L748.312 784.1M285.541 437.48L266.299 406.411L234.55 374.37L199.914 341.359L170.089 311.26M285.541 437.48C285.541 437.48 512.392 658.128 687.7 753.031C711.095 765.696 748.312 784.1 748.312 784.1M170.089 311.26L150.847 299.609L23.8496 219.993L41.1675 217.08M170.089 311.26L277.844 389.905M170.089 311.26L41.1675 217.08M41.1675 217.08L38.2811 207.371L64.2579 207.371M64.2579 207.371L88.3104 187.953L129.681 187.953L177.786 177.273M64.2579 207.371L244.171 287.958M177.786 177.273L250.906 79.2092L257.64 61.7326M177.786 177.273L244.171 287.958M257.64 61.7326L270.148 54.9361M257.64 61.7326L244.171 287.958M270.148 54.9361L244.171 287.958M748.312 784.1L331.722 437.48L277.844 389.905M277.844 389.905L244.171 287.958" stroke="#BDBDBD"/>
</svg>
