<svg width="833" height="858" viewBox="0 0 833 858" fill="none" xmlns="http://www.w3.org/2000/svg">
<path d="M626.26 855.808L602.207 838.332L419.408 945.133L465.589 754.832M626.26 855.808L749.409 833.477M626.26 855.808L650.312 679.1M749.409 833.477L810.983 797.553M749.409 833.477L650.312 679.1M810.983 797.553L832.15 730.559M810.983 797.553L650.312 679.1M832.15 730.559L832.15 618.903M832.15 730.559L650.312 679.1M832.15 618.903L808.097 589.881M832.15 618.903L650.312 679.1M699.379 458.7L260.661 301.411M699.379 458.7L820.604 348.015L832.15 362.579L808.097 589.881M699.379 458.7L808.097 589.881M699.379 458.7L650.312 679.1M260.661 301.411C260.661 301.411 235.483 293.616 221.215 284.905C214.525 280.821 210.908 278.252 204.859 273.254C200.127 269.344 197.229 267.316 193.314 262.574C188.571 256.828 186.351 253.049 183.693 246.068C180.679 238.154 179.313 234.04 177.92 225.679C175.78 212.828 176.059 204.686 175.034 191.696C173.811 176.199 173.754 167.38 175.034 151.888C176.982 128.321 181.606 115.54 187.541 92.662C193.32 70.3862 199.882 58.8204 204.859 36.3484C209.333 16.1482 211.441 4.58647 212.556 -16.0815C213.927 -41.4935 208.708 -81.1334 208.708 -81.1334L196.2 -71.4242M260.661 301.411L650.312 679.1M196.2 -71.4242L193.314 -76.2788L179.845 -71.4242L179.845 -60.744L172.148 -50.0639M196.2 -71.4242L193.314 -50.0639C193.314 -50.0639 189.844 -21.6535 187.541 -3.45952C184.613 19.68 183.461 32.7267 179.844 55.7668C176.017 80.1525 168.299 117.906 168.299 117.906L159.64 182.958L168.299 224.708L179.844 284.905M465.589 754.832C465.589 754.832 389.825 667.21 349.174 605.31C320.339 561.401 281.827 488.799 281.827 488.799L187.541 332.48M465.589 754.832L650.312 679.1M187.541 332.48L168.299 301.411L136.55 269.37L101.914 236.359L72.0891 206.26M187.541 332.48C187.541 332.48 414.392 553.128 589.7 648.031C613.095 660.696 650.312 679.1 650.312 679.1M72.0891 206.26L52.8471 194.609L-74.1504 114.993L-56.8325 112.08M72.0891 206.26L179.844 284.905M72.0891 206.26L-56.8325 112.08M-56.8325 112.08L-59.7189 102.371L-33.7421 102.371M-33.7421 102.371L-9.68956 82.9527L31.6808 82.9527L79.7859 72.2726M-33.7421 102.371L146.171 182.958M79.7859 72.2726L152.906 -25.7908L159.64 -43.2674M79.7859 72.2726L146.171 182.958M159.64 -43.2674L172.148 -50.0639M159.64 -43.2674L146.171 182.958M172.148 -50.0639L146.171 182.958M650.312 679.1L233.722 332.48L179.844 284.905M179.844 284.905L146.171 182.958" stroke="#BDBDBD"/>
</svg>
