<svg width="496" height="388" viewBox="0 0 496 388" fill="none" xmlns="http://www.w3.org/2000/svg">
<path d="M16.1858 280.093L25.1069 267.57L-29.4111 172.394L67.7301 196.438M16.1858 280.093L27.585 344.212M16.1858 280.093L106.388 292.616M27.585 344.212L45.9229 376.271M27.585 344.212L106.388 292.616M45.9229 376.271L80.1206 387.291M45.9229 376.271L106.388 292.616M80.1206 387.291H137.117M80.1206 387.291L106.388 292.616M137.117 387.291L151.931 374.768M137.117 387.291L106.388 292.616M218.894 318.163L299.184 89.7405M218.894 318.163L275.394 381.28L267.96 387.291L151.931 374.768M218.894 318.163L151.931 374.768M218.894 318.163L106.388 292.616M299.184 89.7405C299.184 89.7405 303.163 76.6315 307.61 69.2025C309.694 65.7196 311.005 63.8363 313.557 60.6867C315.553 58.2228 316.588 56.7139 319.009 54.6756C321.942 52.206 323.871 51.0505 327.434 49.6663C331.474 48.097 333.574 47.3858 337.842 46.6607C344.402 45.5465 348.558 45.6915 355.189 45.158C363.1 44.5214 367.601 44.4914 375.509 45.158C387.539 46.172 394.064 48.5799 405.742 51.67C417.113 54.6788 423.017 58.0953 434.488 60.6867C444.799 63.0161 450.701 64.1135 461.251 64.6941C474.223 65.4081 494.458 62.6904 494.458 62.6904L489.502 56.1784M299.184 89.7405L106.388 292.616M489.502 56.1784L491.98 54.6756L489.502 47.6626H484.05L478.598 43.6552M489.502 56.1784L478.598 54.6756C478.598 54.6756 464.096 52.8688 454.808 51.67C442.997 50.1454 436.337 49.5455 424.576 47.6626C412.128 45.6697 392.856 41.6515 392.856 41.6515L359.65 37.1431L338.338 41.6515L307.61 47.6626M67.7301 196.438C67.7301 196.438 112.458 156.991 144.055 135.826C166.469 120.812 203.53 100.761 203.53 100.761L283.324 51.67M67.7301 196.438L106.388 292.616M283.324 51.67L299.184 41.6515L315.539 25.1209L332.391 7.08747L347.755 -8.44129M283.324 51.67C283.324 51.67 170.692 169.782 122.248 261.058C115.783 273.239 106.388 292.616 106.388 292.616M347.755 -8.44129L353.702 -18.4598L394.343 -84.5823L395.83 -75.5656M347.755 -8.44129L307.61 47.6626M347.755 -8.44129L395.83 -75.5656M395.83 -75.5656L400.786 -77.0684V-63.5433M400.786 -63.5433L410.698 -51.0201V-29.4802L416.15 -4.43386M400.786 -63.5433L359.65 30.1301M416.15 -4.43386L466.208 33.6366L475.129 37.1431M416.15 -4.43386L359.65 30.1301M475.129 37.1431L478.598 43.6552M475.129 37.1431L359.65 30.1301M478.598 43.6552L359.65 30.1301M106.388 292.616L283.324 75.7145L307.61 47.6626M307.61 47.6626L359.65 30.1301" stroke="white"/>
</svg>
