<?xml version="1.0" standalone="no"?>
<!DOCTYPE svg PUBLIC "-//W3C//DTD SVG 1.1//EN" "http://www.w3.org/Graphics/SVG/1.1/DTD/svg11.dtd" >
<svg xmlns="http://www.w3.org/2000/svg">
<metadata>Generated by IcoMoon</metadata>
<defs>
<font id="icomoon" horiz-adv-x="1024">
<font-face units-per-em="1024" ascent="960" descent="-64" />
<missing-glyph horiz-adv-x="1024" />
<glyph unicode="&#x20;" horiz-adv-x="512" d="" />
<glyph unicode="&#xe900;" glyph-name="coffee" d="M579.413-10.667h-314.453c-116.907 0-211.627 95.147-211.627 211.627v312.32c0 116.906 95.147 211.626 211.627 211.626h314.453c116.907 0 211.627-95.147 211.627-211.626v-312.32c0-116.48-95.147-211.627-211.627-211.627zM264.96 660.906c-81.493 0-147.627-66.133-147.627-147.626v-312.32c0-81.493 66.133-147.627 147.627-147.627h314.453c81.493 0 147.627 66.133 147.627 147.627v312.32c0 81.493-66.133 147.626-147.627 147.626h-314.453zM234.667 757.333c-17.493 0-32 14.507-32 32v74.667c0 17.493 14.507 32 32 32s32-14.507 32-32v-74.667c0-17.493-14.507-32-32-32zM405.333 757.333c-17.493 0-32 14.507-32 32v74.667c0 17.493 14.507 32 32 32s32-14.507 32-32v-74.667c0-17.493-14.507-32-32-32zM576 757.333c-17.493 0-32 14.507-32 32v74.667c0 17.493 14.507 32 32 32s32-14.507 32-32v-74.667c0-17.493-14.507-32-32-32zM759.040 186.88c-17.493 0-32 14.507-32 32v359.253c0 17.493 14.507 32 32 32 116.907 0 211.627-95.146 211.627-211.626s-95.147-211.627-211.627-211.627zM791.040 542.72v-288.426c66.133 14.507 115.627 73.813 115.627 144.213s-49.493 129.707-115.627 144.213zM747.093 416h-661.76c-17.493 0-32 14.507-32 32s14.507 32 32 32h661.76c17.493 0 32-14.507 32-32s-14.507-32-32-32z" />
<glyph unicode="&#xe901;" glyph-name="ok" d="M512-10.667c-253.013 0-458.667 205.653-458.667 458.667s205.653 458.667 458.667 458.667c253.013 0 458.667-205.653 458.667-458.667s-205.653-458.667-458.667-458.667zM512 842.667c-217.6 0-394.667-177.067-394.667-394.667s177.067-394.667 394.667-394.667c217.6 0 394.667 177.067 394.667 394.667s-177.067 394.667-394.667 394.667zM451.409 295.253c-8.533 0-16.64 3.413-22.613 9.387l-120.745 120.747c-12.373 12.373-12.373 32.853 0 45.227s32.853 12.373 45.227 0l98.132-98.133 219.307 219.308c12.373 12.373 32.853 12.373 45.227 0s12.373-32.853 0-45.227l-241.92-241.921c-5.973-5.973-14.080-9.387-22.613-9.387z" />
<glyph unicode="&#xe902;" glyph-name="star" d="M753.498-7.253c-22.613 0-51.627 7.253-87.893 28.587l-127.573 75.52c-13.227 7.68-38.827 7.68-51.627 0l-127.999-75.52c-75.52-44.8-119.893-26.88-139.947-12.373-19.627 14.507-50.347 51.627-30.293 136.96l30.293 130.987c3.413 13.653-3.413 37.12-13.653 47.36l-105.813 105.813c-52.907 52.907-48.64 98.133-41.387 120.32s30.293 61.44 103.68 73.813l136.107 22.613c12.8 2.133 31.147 15.787 36.693 27.307l75.52 150.613c34.132 68.693 78.932 78.933 102.399 78.933s68.267-10.24 102.4-78.933l75.093-150.187c5.973-11.52 24.32-25.173 37.12-27.307l136.107-22.613c73.813-12.373 96.853-51.627 103.68-73.813s11.093-67.413-41.387-120.32l-105.813-106.24c-10.24-10.24-16.64-33.28-13.653-47.36l30.293-130.987c19.627-85.333-10.667-122.453-30.293-136.96-10.667-7.68-27.733-16.213-52.053-16.213zM512.004 166.827c20.907 0 41.813-5.12 58.453-14.933l127.573-75.52c37.12-22.187 60.587-22.187 69.547-15.787s15.36 29.013 5.973 70.827l-30.293 130.987c-8.107 35.413 5.12 81.067 30.72 107.093l105.813 105.813c20.907 20.907 30.293 41.387 26.027 55.467-4.693 14.080-24.32 25.6-53.333 30.293l-136.107 22.613c-32.853 5.547-68.693 32-83.627 61.867l-75.093 150.187c-13.653 27.307-30.72 43.52-45.653 43.52s-32-16.213-45.227-43.52l-75.519-150.187c-14.933-29.867-50.773-56.32-83.627-61.867l-135.68-22.613c-29.013-4.693-48.64-16.213-53.333-30.293s5.12-34.987 26.027-55.467l105.813-105.813c25.6-25.6 38.827-71.68 30.72-107.093l-30.293-130.987c-9.813-42.24-2.987-64.427 5.973-70.827s32-5.973 69.547 15.787l127.572 75.52c16.213 9.813 37.12 14.933 58.027 14.933z" />
<glyph unicode="&#xe903;" glyph-name="info-circle" d="M512.005-10.67c-253.015 0-458.668 205.655-458.668 458.665 0 253.015 205.653 458.668 458.668 458.668 253.010 0 458.665-205.653 458.665-458.668 0-253.010-205.655-458.665-458.665-458.665zM512.005 842.662c-217.601 0-394.668-177.066-394.668-394.668 0-217.6 177.066-394.665 394.668-394.665 217.6 0 394.665 177.065 394.665 394.665 0 217.601-177.065 394.668-394.665 394.668zM512 373.33c-17.494 0-32 14.505-32 32v213.332c0 17.494 14.506 32 32 32s32-14.506 32-32v-213.332c0-17.495-14.505-32-32-32zM512.005 234.665c-5.548 0-11.095 1.28-16.215 3.415s-9.813 5.12-14.080 8.96c-3.84 4.265-6.826 8.535-8.96 14.080-2.133 5.12-3.413 10.665-3.413 16.215 0 5.545 1.28 11.090 3.413 16.21s5.12 9.815 8.96 14.080c4.267 3.84 8.96 6.83 14.080 8.96 10.24 4.27 22.184 4.27 32.424 0 5.12-2.13 9.815-5.12 14.080-8.96 3.84-4.265 6.83-8.96 8.96-14.080 2.135-5.12 3.415-10.665 3.415-16.21 0-5.55-1.28-11.095-3.415-16.215-2.13-5.545-5.12-9.815-8.96-14.080-4.265-3.84-8.96-6.825-14.080-8.96s-10.665-3.415-16.21-3.415z" />
<glyph unicode="&#xe904;" glyph-name="attach" d="M520.525 218.45c-29.866 0-60.159 11.52-82.772 34.13-22.187 22.19-34.56 51.63-34.56 82.775s12.373 61.015 34.56 82.775l60.158 60.158c12.374 12.373 32.854 12.373 45.229 0 12.37-12.374 12.37-32.853 0-45.228l-60.161-60.16c-10.24-10.24-15.786-23.465-15.786-37.545s5.546-27.735 15.786-37.545c20.906-20.91 54.616-20.91 75.521 0l94.72 94.72c54.185 54.185 54.185 142.077 0 196.264-54.19 54.186-142.081 54.186-196.267 0l-103.256-103.252c-21.76-21.76-33.705-50.347-33.705-80.642 0-30.29 11.945-59.305 33.705-80.64 12.374-12.37 12.374-32.85 0-45.225s-32.853-12.375-45.226 0c-33.706 33.705-52.052 78.505-52.052 126.295 0 47.785 18.345 92.584 52.052 126.291l103.255 103.254c78.934 78.934 207.784 78.934 286.719 0s78.935-207.785 0-286.72l-94.72-94.72c-23.040-23.465-52.905-34.985-83.2-34.985zM511.998-10.67c-253.014 0-458.666 205.655-458.666 458.665 0 253.014 205.653 458.668 458.666 458.668s458.667-205.654 458.667-458.668c0-253.010-205.655-458.665-458.667-458.665zM511.998 842.662c-217.6 0-394.666-177.066-394.666-394.668 0-217.6 177.066-394.665 394.666-394.665 217.602 0 394.667 177.065 394.667 394.665 0 217.601-177.065 394.668-394.667 394.668z" />
<glyph unicode="&#xe905;" glyph-name="calendar" d="M349.459 701.964c-16.66 0-30.476 13.816-30.476 30.476v121.905c0 16.66 13.816 30.476 30.476 30.476s30.476-13.816 30.476-30.476v-121.905c0-16.66-13.816-30.476-30.476-30.476zM674.543 701.964c-16.662 0-30.476 13.816-30.476 30.476v121.905c0 16.66 13.814 30.476 30.476 30.476 16.657 0 30.476-13.816 30.476-30.476v-121.905c0-16.66-13.819-30.476-30.476-30.476zM369.778 346.409c-5.282 0-10.565 1.219-15.441 3.248-5.283 2.033-9.346 4.876-13.41 8.533-7.314 7.724-11.784 17.881-11.784 28.852 0 5.281 1.219 10.567 3.251 15.443s4.876 9.343 8.533 13.41c4.063 3.657 8.127 6.5 13.41 8.533 14.629 6.095 32.914 2.843 44.292-8.533 7.314-7.724 11.784-18.286 11.784-28.852 0-2.438-0.407-5.281-0.813-8.129-0.406-2.438-1.219-4.876-2.438-7.314-0.813-2.438-2.032-4.876-3.657-7.314-1.219-2.028-3.251-4.062-4.876-6.095-7.72-7.314-18.286-11.781-28.851-11.781zM512 346.419c-5.286 0-10.567 1.219-15.443 3.248-5.281 2.033-9.346 4.876-13.41 8.533-7.314 7.724-11.784 17.881-11.784 28.852 0 5.281 1.219 10.567 3.25 15.443s4.876 9.343 8.533 13.41c4.064 3.657 8.129 6.5 13.41 8.533 14.629 6.5 32.914 2.843 44.29-8.533 7.314-7.724 11.786-18.286 11.786-28.852 0-2.438-0.405-5.281-0.814-8.129-0.405-2.438-1.219-4.876-2.438-7.314-0.809-2.438-2.028-4.876-3.657-7.314-1.219-2.028-3.248-4.062-4.876-6.095-7.719-7.314-18.286-11.781-28.848-11.781zM654.224 346.419c-5.281 0-10.567 1.219-15.443 3.248-5.281 2.033-9.343 4.876-13.41 8.533-1.624 2.033-3.248 4.067-4.876 6.095-1.624 2.438-2.843 4.876-3.657 7.314-1.219 2.438-2.028 4.876-2.438 7.314-0.405 2.848-0.809 5.691-0.809 8.129 0 10.567 4.467 21.129 11.781 28.852 4.067 3.657 8.129 6.5 13.41 8.533 15.038 6.5 32.914 2.843 44.295-8.533 7.314-7.724 11.781-18.286 11.781-28.852 0-2.438-0.405-5.281-0.809-8.129-0.41-2.438-1.219-4.876-2.438-7.314-0.814-2.438-2.033-4.876-3.657-7.314-1.219-2.028-3.252-4.062-4.876-6.095-7.724-7.314-18.286-11.781-28.852-11.781zM369.778 204.19c-5.282 0-10.565 1.219-15.441 3.252-4.876 2.028-9.346 4.876-13.41 8.533-7.314 7.719-11.784 18.286-11.784 28.848 0 5.286 1.219 10.567 3.251 15.443 2.031 5.281 4.876 9.752 8.533 13.41 15.035 15.033 42.667 15.033 57.701 0 7.314-7.719 11.784-18.286 11.784-28.852 0-10.562-4.47-21.129-11.784-28.848-7.72-7.314-18.286-11.786-28.851-11.786zM512 204.19c-10.567 0-21.133 4.471-28.853 11.786-7.314 7.719-11.784 18.286-11.784 28.848 0 5.286 1.219 10.567 3.25 15.443 2.032 5.281 4.876 9.752 8.533 13.41 15.034 15.033 42.667 15.033 57.7 0 3.657-3.657 6.505-8.129 8.533-13.41 2.033-4.876 3.252-10.157 3.252-15.443 0-10.562-4.471-21.129-11.786-28.848-7.719-7.314-18.286-11.786-28.848-11.786zM654.224 204.195c-10.567 0-21.129 4.467-28.852 11.781-3.657 3.657-6.5 8.129-8.533 13.41-2.028 4.876-3.248 10.162-3.248 15.443s1.219 10.567 3.248 15.443c2.033 5.281 4.876 9.752 8.533 13.41 9.348 9.343 23.572 13.814 36.571 10.971 2.848-0.41 5.286-1.219 7.724-2.438 2.438-0.814 4.876-2.033 7.314-3.657 2.028-1.219 4.062-3.252 6.095-4.876 7.314-7.724 11.781-18.286 11.781-28.852s-4.467-21.129-11.781-28.852c-7.724-7.314-18.286-11.781-28.852-11.781zM857.395 535.774h-690.794c-16.66 0-30.476 13.816-30.476 30.476s13.816 30.476 30.476 30.476h690.794c16.662 0 30.476-13.816 30.476-30.476s-13.814-30.476-30.476-30.476zM674.538 11.171h-325.078c-148.318 0-233.651 85.333-233.651 233.652v345.395c0 148.317 85.333 233.65 233.651 233.65h325.078c148.319 0 233.652-85.333 233.652-233.65v-345.395c0-148.319-85.333-233.652-233.652-233.652zM349.46 762.917c-116.216 0-172.699-56.482-172.699-172.698v-345.395c0-116.219 56.482-172.7 172.699-172.7h325.078c116.219 0 172.7 56.481 172.7 172.7v345.395c0 116.216-56.481 172.698-172.7 172.698h-325.078z" />
<glyph unicode="&#xe906;" glyph-name="arrow-down" d="M512 243.204c-29.867 0-59.733 11.52-82.347 34.133l-278.186 278.187c-12.373 12.373-12.373 32.853 0 45.227s32.853 12.373 45.227 0l278.186-278.187c20.48-20.48 53.76-20.48 74.24 0l278.187 278.187c12.373 12.373 32.853 12.373 45.227 0s12.373-32.853 0-45.227l-278.187-278.187c-22.613-22.613-52.48-34.133-82.347-34.133z" />
<glyph unicode="&#xe907;" glyph-name="arrow-right" d="M615.68 157.010c-8.105 0-16.215 2.985-22.615 9.385-12.37 12.375-12.37 32.855 0 45.225l236.375 236.375-236.375 236.374c-12.37 12.374-12.37 32.854 0 45.226 12.375 12.374 32.855 12.374 45.23 0l258.985-258.986c12.375-12.374 12.375-32.854 0-45.229l-258.985-258.985c-6.4-6.4-14.505-9.385-22.615-9.385zM867.415 416h-718.077c-17.494 0-32 14.505-32 32s14.506 32 32 32h718.077c17.495 0 32-14.506 32-32s-14.505-32-32-32z" />
<glyph unicode="&#xe908;" glyph-name="location" d="M511.995 355.41c-90.88 0-165.12 73.815-165.12 165.122s74.24 164.694 165.12 164.694c90.88 0 165.12-73.814 165.12-165.12s-74.24-164.695-165.12-164.695zM511.995 621.225c-55.466 0-101.12-45.226-101.12-101.12s45.227-101.12 101.12-101.12c55.895 0 101.12 45.226 101.12 101.12s-45.655 101.12-101.12 101.12zM511.995-11.095c-63.146 0-126.72 23.89-176.213 71.25-125.867 121.175-264.96 314.455-212.48 544.428 47.36 208.64 229.546 302.080 388.693 302.080 0 0 0 0 0.425 0 159.15 0 341.335-93.44 388.695-302.506 52.055-229.971-87.040-422.826-212.905-544.001-49.495-47.36-113.070-71.25-176.215-71.25zM511.995 842.662c-124.16 0-283.733-66.133-325.973-252.16-46.080-200.957 80.213-374.188 194.56-483.837 73.813-71.255 189.438-71.255 263.253 0 113.92 109.65 240.215 282.88 194.985 483.837-42.665 186.027-202.665 252.16-326.825 252.16z" />
<glyph unicode="&#xe909;" glyph-name="call" d="M744.535-10.67c-48.21 0-98.985 11.52-151.465 33.705-51.2 21.76-102.826 51.63-153.172 87.895-49.92 36.695-98.134 77.655-143.787 122.455-45.226 45.65-86.186 93.865-122.453 143.36-36.694 51.2-66.134 102.397-87.040 151.891-22.187 52.906-33.28 104.106-33.28 152.32 0 33.28 5.973 64.854 17.493 94.294 11.947 30.293 31.147 58.453 57.174 82.773 32.854 32.427 70.4 48.64 110.507 48.64 16.64 0 33.706-3.84 48.213-10.666 16.64-7.68 30.72-19.2 40.96-34.56l98.987-139.52c8.96-12.374 15.786-24.32 20.479-36.266 5.547-12.8 8.534-25.601 8.534-37.974 0-16.214-4.694-32-13.654-46.934-6.4-11.52-16.213-23.894-28.586-36.266l-29.013-30.294c0.426-1.28 0.853-2.134 1.279-2.986 5.121-8.96 15.36-24.32 34.987-47.36 20.906-23.894 40.534-45.651 60.16-65.706 25.174-24.745 46.077-44.375 65.708-60.585 24.32-20.48 40.105-30.72 49.49-35.415l-0.85-2.135 31.145 30.72c13.225 13.23 26.025 23.040 38.4 29.44 23.465 14.51 53.335 17.070 83.2 4.695 11.095-4.695 23.040-11.095 35.84-20.055l141.655-100.69c15.785-10.67 27.305-24.32 34.13-40.535 6.4-16.215 9.39-31.145 9.39-46.080 0-20.48-4.695-40.96-13.655-60.16s-20.055-35.84-34.135-51.2c-24.32-26.88-50.77-46.080-81.49-58.455-29.44-11.945-61.44-18.345-95.15-18.345zM238.511 842.662c-23.467 0-45.227-10.24-66.134-30.72-19.627-18.346-33.28-38.4-41.814-60.16-8.96-22.186-13.226-45.653-13.226-70.826 0-39.68 9.386-82.774 28.16-127.147 19.2-45.226 46.080-92.159 80.213-139.094 34.134-46.93 72.961-92.585 115.627-135.68 42.666-42.24 88.746-81.49 136.106-116.050 46.081-33.71 93.441-61.015 140.371-80.64 72.96-31.15 141.23-38.4 197.55-14.935 21.76 8.96 40.96 22.615 58.45 42.24 9.815 10.665 17.495 22.185 23.895 35.84 5.12 10.665 7.68 21.76 7.68 32.855 0 6.825-1.28 13.65-4.695 21.33-1.28 2.56-3.84 7.255-11.945 12.8l-141.655 100.695c-8.53 5.975-16.21 10.24-23.465 13.225-9.385 3.84-13.225 7.68-27.735-1.28-8.53-4.265-16.21-10.665-24.745-19.2l-32.425-32c-16.64-16.21-42.24-20.050-61.87-12.8l-11.52 5.12c-17.49 9.39-37.97 23.895-60.584 43.095-20.479 17.495-42.666 37.975-69.546 64.425-20.906 21.335-41.814 43.95-63.573 69.12-20.054 23.468-34.56 43.521-43.521 60.161l-5.12 12.8c-2.559 9.813-3.413 15.36-3.413 21.334 0 15.359 5.546 29.013 16.213 39.68l32 33.279c8.534 8.534 14.934 16.641 19.2 23.894 3.414 5.547 4.694 10.24 4.694 14.506 0 3.414-1.28 8.534-3.413 13.654-2.987 6.827-7.681 14.507-13.654 22.614l-98.987 139.946c-4.266 5.974-9.386 10.24-15.786 13.227-6.826 2.986-14.080 4.693-21.333 4.693zM595.205 319.57l-6.83-29.015 11.52 29.87c-2.13 0.425-3.84 0-4.69-0.855z" />
<glyph unicode="&#xe90a;" glyph-name="sms" d="M725.335 53.33h-426.664c-155.734 0-245.334 89.6-245.334 245.335v298.664c0 155.734 89.6 245.334 245.334 245.334h426.664c155.735 0 245.335-89.6 245.335-245.334v-298.664c0-155.735-89.6-245.335-245.335-245.335zM298.671 778.662c-122.027 0-181.334-59.306-181.334-181.334v-298.664c0-122.030 59.306-181.335 181.334-181.335h426.664c122.030 0 181.335 59.305 181.335 181.335v298.664c0 122.027-59.305 181.334-181.335 181.334h-426.664zM511.986 410.88c-35.84 0-72.106 11.095-99.839 33.71l-133.547 106.664c-13.654 11.094-16.213 31.147-5.12 44.8s31.147 16.214 44.801 5.12l133.546-106.666c32.426-26.027 87.469-26.027 119.894 0l133.545 106.666c13.655 11.094 34.135 8.96 44.8-5.12 11.095-13.653 8.96-34.134-5.12-44.8l-133.545-106.664c-27.305-22.615-63.575-33.71-99.414-33.71z" />
<glyph unicode="&#xe90b;" glyph-name="facebook" d="M629.333-10.667h-192v309.333h-40.534c-24.747 0-44.8 20.053-44.8 44.8v81.067c0 24.747 20.053 44.8 44.8 44.8h40.534v106.667c0 88.32 71.68 160 160 160h115.2c24.747 0 44.8-20.053 44.8-44.8v-102.401c0-24.747-20.053-44.8-44.8-44.8h-83.2v-74.667h80.213c13.653 0 26.027-5.973 34.56-16.213s11.947-23.893 9.387-37.12l-16.213-81.067c-4.267-20.907-22.613-35.84-43.947-35.84h-64v-309.76zM501.333 53.333h64v309.333h112.64l8.533 42.667h-120.747v157.867c0 24.747 20.053 44.8 44.8 44.8h83.2v64h-96.427c-52.907 0-96-43.093-96-96v-170.667h-85.333v-42.667h85.333v-309.333zM640-10.667h-256c-231.68 0-330.667 98.987-330.667 330.667v256c0 231.68 98.987 330.667 330.667 330.667h256c231.68 0 330.667-98.987 330.667-330.667v-256c0-231.68-98.987-330.667-330.667-330.667zM384 842.667c-196.693 0-266.667-69.973-266.667-266.667v-256c0-196.693 69.973-266.667 266.667-266.667h256c196.693 0 266.667 69.973 266.667 266.667v256c0 196.693-69.973 266.667-266.667 266.667h-256z" />
<glyph unicode="&#xe90c;" glyph-name="whatsapp" d="M85.339-10.667c-8.533 0-16.641 3.413-22.615 9.387-8.107 8.107-11.518 20.053-8.531 31.147l53.76 200.96c-35.84 66.56-54.615 141.653-54.615 217.6 0 253.014 205.653 458.667 458.665 458.667s458.667-205.653 458.667-458.667-205.653-458.667-458.667-458.667c-77.227 0-152.744 19.2-220.157 55.893l-197.974-55.040c-2.987-0.853-5.547-1.28-8.534-1.28zM296.113 111.787c5.547 0 11.094-1.707 16.214-4.267 60.16-35.413 129.278-54.187 199.678-54.187 217.6 0 394.667 177.067 394.667 394.667s-177.067 394.667-394.667 394.667c-217.598 0-394.665-177.067-394.665-394.667 0-69.547 18.346-137.387 52.906-197.12 4.267-7.253 5.548-16.213 3.414-24.32l-42.667-159.573 157.013 43.52c2.56 0.853 5.547 1.28 8.107 1.28zM628.907 202.236c-26.453 0-53.76 5.978-82.347 18.351-26.88 11.52-53.76 26.88-79.787 46.080-25.6 18.773-50.772 40.107-73.812 63.147-23.040 23.467-44.375 48.209-63.148 73.809-19.2 26.88-34.56 53.338-45.654 79.364-11.947 28.16-17.919 55.892-17.919 82.345 0 18.773 3.412 36.693 9.812 53.333 6.827 17.493 17.92 33.28 32.427 46.933 27.307 26.88 66.562 36.692 97.708 21.759 10.667-4.693 19.626-12.373 26.452-22.613l49.493-69.545c5.12-6.827 8.96-14.080 11.947-21.333 3.413-8.533 5.547-17.068 5.547-25.175 0-11.093-2.987-22.188-8.96-32.002-3.84-6.4-9.387-14.080-16.64-21.333l-5.547-5.969c2.56-3.413 5.547-7.68 10.24-12.8 8.96-10.24 18.773-21.333 29.44-32 10.667-10.24 21.333-20.48 32-29.44 5.12-4.267 9.387-7.68 12.8-9.813l5.973 5.973c7.68 7.68 15.36 13.649 23.040 17.489 14.080 8.96 35.84 11.098 55.040 2.991 6.827-2.56 13.653-6.4 20.907-11.52l71.253-50.347c9.813-6.827 17.493-16.213 22.613-26.88 4.267-10.667 5.973-20.053 5.973-29.867 0-12.8-2.987-25.173-8.533-37.12-5.547-11.093-11.947-20.911-19.627-29.871-13.653-14.933-29.44-26.027-46.507-33.28s-35.413-10.667-54.187-10.667zM375.039 629.759c-2.56 0-11.091 0-21.758-10.667-8.107-7.68-13.655-15.788-17.495-24.748s-5.547-19.2-5.547-29.44c0-17.92 4.266-37.118 12.8-57.598 8.96-21.333 22.188-43.951 38.401-66.564 16.64-22.613 35.414-45.222 56.32-66.129 20.907-20.48 43.093-39.68 66.133-56.747 22.187-16.213 44.8-29.013 67.413-38.827 32.427-14.080 62.293-17.493 86.613-7.253 8.533 3.413 16.213 9.382 23.893 17.062 3.84 4.267 6.827 8.538 9.387 14.084 1.28 2.987 2.133 6.4 2.133 9.387 0 0.853 0 2.133-1.28 4.693l-71.253 49.493c-2.987 2.133-5.973 3.84-8.533 4.693-1.707-0.853-4.267-2.133-8.96-6.827l-16.213-16.213c-12.373-12.373-32-15.787-47.787-10.24l-7.68 3.413c-9.813 5.12-20.907 12.796-33.28 23.462-11.947 10.24-23.467 20.911-35.84 32.858-11.947 12.373-22.613 23.893-32.853 35.84-11.093 13.227-18.773 23.893-23.893 32.853l-4.693 11.093c-1.28 4.267-1.708 8.96-1.708 13.227 0 11.947 4.268 22.613 12.375 31.147l16.212 16.638c4.693 4.693 6.4 7.253 7.253 8.96-1.28 2.987-2.987 5.548-5.12 8.534l-49.921 70.4-5.12 3.414z" />
<glyph unicode="&#xe90d;" glyph-name="dribbble" d="M293.122 436.053c-17.92 0-36.268 0.853-54.188 2.56l-135.252 12.373c-17.493 1.707-30.72 17.067-29.013 34.987 1.707 17.493 16.64 30.72 34.987 29.013l135.252-12.373c209.065-19.2 412.158 86.612 516.691 269.225 8.96 15.36 28.164 20.48 43.524 11.947 15.36-8.96 20.48-28.16 11.947-43.52-107.52-189.013-309.333-304.212-523.949-304.212zM234.668 101.547c-5.547 0-10.667 1.28-15.787 4.267-15.36 8.96-20.481 28.16-11.948 43.52 116.907 204.373 343.898 322.987 578.138 301.227l135.249-12.373c17.493-1.707 30.72-17.067 29.013-34.987-1.707-17.493-16.64-30.293-34.987-29.013l-135.253 12.373c-209.067 19.2-412.158-86.613-516.691-269.227-5.973-10.24-16.641-15.787-27.734-15.787zM512-10.667c-253.013 0-458.667 205.653-458.667 458.667s205.653 458.667 458.667 458.667c253.013 0 458.667-205.653 458.667-458.667s-205.653-458.667-458.667-458.667zM512 842.667c-217.6 0-394.667-177.067-394.667-394.667s177.067-394.667 394.667-394.667c217.6 0 394.667 177.067 394.667 394.667s-177.067 394.667-394.667 394.667zM702.716 34.129c-14.507 0-27.307 9.813-31.147 24.32l-51.622 212.907c-32.853 134.827-96.004 263.255-183.471 371.629l-135.679 168.533c-11.093 13.653-8.96 33.707 4.693 44.8s33.709 8.96 44.802-4.694l135.681-168.532c93.013-115.627 160.849-252.589 195.836-396.376l51.627-212.902c4.267-17.067-6.396-34.56-23.462-38.827-2.133-0.427-4.698-0.858-7.258-0.858z" />
<glyph unicode="&#xe90e;" glyph-name="copy" d="M473.592-10.67h-179.2c-166.827 0-241.067 74.24-241.067 241.065v179.2c0 166.828 74.24 241.068 241.067 241.068h179.2c166.828 0 241.068-74.24 241.068-241.068v-179.2c0-166.825-74.24-241.065-241.068-241.065zM294.392 586.662c-132.267 0-177.067-44.8-177.067-177.068v-179.2c0-132.265 44.8-177.065 177.067-177.065h179.2c132.268 0 177.068 44.8 177.068 177.065v179.2c0 132.268-44.8 177.068-177.068 177.068h-179.2zM729.59 245.33h-46.93c-17.495 0-32 14.505-32 32v132.265c0 132.268-44.8 177.068-177.068 177.068h-132.267c-17.493 0-32 14.507-32 32v46.934c0 166.826 74.24 241.066 241.065 241.066h179.2c166.83 0 241.070-74.24 241.070-241.066v-179.2c0-166.826-74.24-241.066-241.070-241.066zM714.66 309.33h14.93c132.27 0 177.070 44.8 177.070 177.066v179.2c0 132.266-44.8 177.066-177.070 177.066h-179.2c-132.265 0-177.065-44.8-177.065-177.066v-14.934h100.267c166.828 0 241.068-74.24 241.068-241.068v-100.265z" />
<glyph unicode="&#xe90f;" glyph-name="linkedin" horiz-adv-x="983" d="M309.59 615.938c-42.587-0.357-85.185-0.279-127.776-0.042-12.034 0.071-17.996-4.083-17.974-17.78 0.267-152.726 0.163-305.453 0.195-458.173 0.003-5.816-0.888-12.206 6.273-14.852 0.273-0.934 150.417-0.872 150.821 0.049 7.904 3.080 6.31 10.244 6.314 16.437 0.069 151.65-0.053 303.301 0.238 454.948 0.022 13.761-4.689 19.526-18.090 19.412zM245.759 820.74c-45.24 0-81.919-36.678-81.919-81.919 0-45.246 36.678-81.921 81.919-81.921 45.243 0 81.921 36.675 81.921 81.921 0 45.24-36.678 81.919-81.921 81.919zM858.034 147.964c0.098 78.283 0.496 156.566-0.139 234.844-0.279 34.288-1.511 68.665-8.716 102.412-11.813 55.325-38.396 98.523-91.197 118.666-35.23 13.437-72.061 14.302-108.847 9.093-30.904-4.376-59.372-16.147-85.307-38.026 0 7.96-0.025 13.239 0.008 18.511 0.078 11.842-5.431 17.194-16.785 17.14-40.342-0.188-80.683-0.14-121.033-0.032-11.104 0.032-16.432-4.555-16.417-17.037 0.213-150.217 0.135-300.434 0.139-450.651 0-5.759-0.757-11.891 5.911-14.725 0.705-0.93 146.354-1.278 146.35-0.332 9.552 4.293 6.615 13.349 6.631 20.722 0.131 74.088-0.311 148.181 0.086 222.269 0.123 23.167 0.979 46.572 10.985 68.145 11.858 25.563 36.397 36.639 70.963 32.104 23.777-3.113 38.957-19.214 43.684-47.268 1.749-10.363 3.056-20.959 3.117-31.457 0.463-81.494 0.528-162.992 0.864-244.49 0.037-7.524-2.224-16.409 7.471-20.193-0.332-1.069 146.326-0.422 146.362 0.614 7.893 4.6 5.861 12.624 5.87 19.689z" />
<glyph unicode="&#xe910;" glyph-name="behance" horiz-adv-x="983" d="M478.003 534.43c0 22.118-3.277 72.090-92.979 72.090h-138.445v-290.816h140.493c13.107 0 102.81 2.458 102.81 84.378 2.154 34.013-19.939 64.84-52.838 73.728 25.256 9.314 41.742 33.714 40.96 60.621zM370.688 555.729c0.312 0 0.736 0.011 1.258 0.025 8.397 0.222 42.159 1.117 42.159-33.203 0.188-9.953-3.94-19.497-11.324-26.173s-17.296-9.83-27.179-8.643h-65.126v67.994h60.211zM378.88 364.036h-68.403v81.92h69.222c11.752 1.54 23.595-2.085 32.469-9.937 8.876-7.856 13.918-19.169 13.816-31.023 0-39.731-40.96-39.731-47.104-39.731v-1.229zM675.84 579.486h-108.544v-26.624h108.544v26.624zM551.199 500.191c19.186 19.497 45.703 29.995 73.032 28.914 73.728 0 96.666-62.259 95.027-115.098h-139.674c-1.782-13.283 2.552-26.657 11.784-36.368 9.236-9.712 22.372-14.713 35.729-13.603 17.506-0.086 33.481 9.974 40.96 25.805h45.466c-10.117-41.202-48.644-68.973-90.931-65.536-27.238-1.262-53.703 9.241-72.667 28.832s-28.602 46.387-26.456 73.568c-1.524 27.308 8.548 53.993 27.73 73.486zM581.222 460.292c-1.532-4.207-2.359-8.634-2.458-13.107h86.426c-0.643 11.428-4.952 22.344-12.288 31.13-8.131 7.426-18.907 11.264-29.901 10.65-7.324 0.311-14.615-1.094-21.299-4.096-5.394-2.621-10.15-6.398-13.926-11.059-3.068-4.022-5.3-8.618-6.554-13.517zM719.258 861.7h-473.498c-90.486 0-163.84-73.354-163.84-163.84v-473.498c0-90.485 73.354-163.84 163.84-163.84h473.498c90.485 0 163.84 73.355 163.84 163.84v473.498c0 90.486-73.355 163.84-163.84 163.84zM821.658 224.362c0-56.553-45.847-102.4-102.4-102.4h-473.498c-56.554 0-102.4 45.847-102.4 102.4v473.498c0 56.554 45.846 102.4 102.4 102.4h473.498c56.553 0 102.4-45.846 102.4-102.4v-473.498z" />
<glyph unicode="&#xe911;" glyph-name="location_pin_filled" d="M879.787 599.467c-44.8 197.12-216.747 285.867-367.787 285.867 0 0 0 0-0.427 0-150.615 0-322.988-88.32-367.788-285.44-49.92-220.16 84.907-406.613 206.933-523.947 45.227-43.52 103.255-65.28 161.281-65.28s116.053 21.76 160.853 65.28c122.027 117.333 256.853 303.36 206.933 523.52zM512 385.707c-74.24 0-134.401 60.16-134.401 134.4s60.161 134.4 134.401 134.4c74.24 0 134.4-60.16 134.4-134.4s-60.16-134.4-134.4-134.4z" />
<glyph unicode="&#xe912;" glyph-name="lock-circle" d="M511.996 305.067c-31.573 0-57.6 26.027-57.6 57.6s26.027 57.6 57.6 57.6c31.573 0 57.6-26.027 57.6-57.6s-26.027-57.6-57.6-57.6zM511.996 369.067c-3.413 0-6.4-2.987-6.4-6.4 0-7.253 12.8-7.253 12.8 0 0 3.413-2.987 6.4-6.4 6.4zM512-10.667c-253.013 0-458.667 205.653-458.667 458.667s205.653 458.667 458.667 458.667c253.013 0 458.667-205.653 458.667-458.667s-205.653-458.667-458.667-458.667zM512 842.667c-217.6 0-394.667-177.067-394.667-394.667s177.067-394.667 394.667-394.667c217.6 0 394.667 177.067 394.667 394.667s-177.067 394.667-394.667 394.667zM608 522.667h-192v10.667c0 62.293 15.36 96 96 96s96-33.707 96-96v-10.667zM352 518.157c-62.020-12.467-85.333-52.058-85.333-134.157v-42.667c0-102.4 36.267-138.667 138.667-138.667h213.333c102.4 0 138.667 36.267 138.667 138.667v42.667c0 82.099-23.313 121.69-85.333 134.157v15.177c0 39.68 0 160-160 160s-160-120.32-160-160v-15.177zM330.667 384c0 67.84 6.827 74.667 74.667 74.667h213.333c67.84 0 74.667-6.827 74.667-74.667v-42.667c0-67.84-6.827-74.667-74.667-74.667h-213.333c-67.84 0-74.667 6.827-74.667 74.667v42.667z" />
<glyph unicode="&#xe926;" glyph-name="close-square" d="M391.253 295.253c-8.107 0-16.213 2.987-22.613 9.387-12.373 12.373-12.373 32.853 0 45.227l241.494 241.494c12.373 12.373 32.853 12.373 45.227 0s12.373-32.853 0-45.226l-241.494-241.494c-5.973-6.4-14.506-9.387-22.613-9.387zM632.747 295.253c-8.107 0-16.213 2.987-22.613 9.387l-241.494 241.494c-12.373 12.373-12.373 32.853 0 45.226s32.853 12.373 45.226 0l241.494-241.494c12.373-12.373 12.373-32.853 0-45.227-6.4-6.4-14.507-9.387-22.613-9.387zM640-10.667h-256c-231.68 0-330.667 98.987-330.667 330.667v256c0 231.68 98.987 330.667 330.667 330.667h256c231.68 0 330.667-98.987 330.667-330.667v-256c0-231.68-98.987-330.667-330.667-330.667zM384 842.667c-196.693 0-266.667-69.973-266.667-266.667v-256c0-196.693 69.973-266.667 266.667-266.667h256c196.693 0 266.667 69.973 266.667 266.667v256c0 196.693-69.973 266.667-266.667 266.667h-256z" />
</font>
</defs>
</svg>
